<svg width="109" height="33" viewBox="0 0 109 33" fill="none" xmlns="http://www.w3.org/2000/svg">
<g clip-path="url(#clip0_4960_214)">
<path d="M12.2231 1.34348L7.895 1.98139L0 15.9866L7.895 29.9919L12.2231 30.6298L3.82063 15.9866L12.2231 1.34348ZM23.3153 1.34348L27.6434 1.98139L35.5384 15.9866L27.6434 29.9846L23.3153 30.6226L31.7178 15.9794L23.3153 1.34348Z" fill="black"/>
<path d="M12.2232 1.34352L17.7693 0.705597V15.9867H3.82071L12.2232 1.34352Z" fill="#FFF8DA"/>
<path d="M12.2232 30.6226L17.7693 31.2605V15.9866H3.82071L12.2232 30.6226Z" fill="#FFE46B"/>
<path d="M23.3151 30.6226L17.769 31.2605V15.9866H31.7176L23.3151 30.6226Z" fill="#FFD209"/>
<path d="M23.3151 1.34352L17.769 0.705597V15.9867H31.7176L23.3151 1.34352Z" fill="#FFF1B5"/>
<path d="M53.8906 12.931C53.6668 14.261 53.1199 15.2928 52.2498 16.0262C51.3796 16.7595 50.2982 17.1262 49.0054 17.1262C47.5883 17.1262 46.395 16.6415 45.4254 15.6719C44.8536 15.1001 44.4932 14.4351 44.344 13.6768C44.1948 12.931 44.1202 11.8309 44.1202 10.3765C44.1202 8.92214 44.1948 7.82204 44.344 7.07621C44.4932 6.31795 44.8536 5.65292 45.4254 5.08112C46.395 4.11154 47.5883 3.62675 49.0054 3.62675C50.2982 3.62675 51.3796 3.99345 52.2498 4.72685C53.1199 5.46025 53.6668 6.49198 53.8906 7.82204H51.2615C50.9508 6.56656 50.205 5.93882 49.0241 5.93882C48.3031 5.93882 47.7499 6.16879 47.3646 6.62871C47.0911 6.91461 46.9109 7.29374 46.8239 7.7661C46.7493 8.22603 46.712 9.09616 46.712 10.3765C46.712 11.6568 46.7493 12.5332 46.8239 13.0055C46.9109 13.4655 47.0911 13.8384 47.3646 14.1243C47.7499 14.5842 48.3031 14.8142 49.0241 14.8142C50.205 14.8142 50.9508 14.1864 51.2615 12.931H53.8906ZM63.6631 12.1478C63.6631 13.0801 63.5823 13.8384 63.4207 14.4226C63.2716 14.9944 62.9857 15.4979 62.563 15.9329C61.8172 16.7285 60.8103 17.1262 59.5424 17.1262C58.2869 17.1262 57.2863 16.7285 56.5405 15.9329C56.1178 15.4979 55.8257 14.9944 55.6641 14.4226C55.515 13.8384 55.4404 13.0801 55.4404 12.1478C55.4404 11.228 55.515 10.4822 55.6641 9.91036C55.8257 9.32613 56.1178 8.81648 56.5405 8.38141C57.2863 7.58586 58.2869 7.18809 59.5424 7.18809C60.8103 7.18809 61.8172 7.58586 62.563 8.38141C62.9857 8.81648 63.2716 9.32613 63.4207 9.91036C63.5823 10.4822 63.6631 11.228 63.6631 12.1478ZM61.2392 12.1478C61.2392 10.9545 61.0527 10.1714 60.6798 9.79848C60.3939 9.51258 60.0148 9.36963 59.5424 9.36963C59.0825 9.36963 58.7096 9.51258 58.4237 9.79848C58.0508 10.1714 57.8643 10.9545 57.8643 12.1478C57.8643 13.3536 58.0508 14.1429 58.4237 14.5158C58.7096 14.8017 59.0825 14.9447 59.5424 14.9447C60.0148 14.9447 60.3939 14.8017 60.6798 14.5158C61.0527 14.1429 61.2392 13.3536 61.2392 12.1478ZM79.6046 17.0144H77.1807V11.141C77.1807 10.5319 77.0191 10.0844 76.6959 9.79848C76.3851 9.51258 76.0122 9.36963 75.5772 9.36963C75.1421 9.36963 74.763 9.51258 74.4398 9.79848C74.1166 10.072 73.955 10.5008 73.955 11.085V17.0144H71.531V11.141C71.531 10.5319 71.3694 10.0844 71.0462 9.79848C70.7355 9.51258 70.3626 9.36963 69.9275 9.36963C69.48 9.36963 69.0947 9.51258 68.7715 9.79848C68.4607 10.0844 68.3053 10.5319 68.3053 11.141V17.0144H65.8814V7.29996H68.2494V8.19495C68.8958 7.52371 69.7038 7.18809 70.6733 7.18809C71.7921 7.18809 72.6498 7.59829 73.2464 8.4187C74.0296 7.59829 74.9991 7.18809 76.1552 7.18809C77.1745 7.18809 77.97 7.47399 78.5418 8.04579C79.2504 8.75432 79.6046 9.67418 79.6046 10.8054V17.0144ZM95.8446 17.0144H93.4207V11.141C93.4207 10.5319 93.2591 10.0844 92.9359 9.79848C92.6251 9.51258 92.2522 9.36963 91.8171 9.36963C91.3821 9.36963 91.0029 9.51258 90.6797 9.79848C90.3565 10.072 90.1949 10.5008 90.1949 11.085V17.0144H87.771V11.141C87.771 10.5319 87.6094 10.0844 87.2862 9.79848C86.9755 9.51258 86.6025 9.36963 86.1675 9.36963C85.72 9.36963 85.3346 9.51258 85.0114 9.79848C84.7007 10.0844 84.5453 10.5319 84.5453 11.141V17.0144H82.1214V7.29996H84.4894V8.19495C85.1357 7.52371 85.9437 7.18809 86.9133 7.18809C88.032 7.18809 88.8897 7.59829 89.4864 8.4187C90.2695 7.59829 91.2391 7.18809 92.3951 7.18809C93.4144 7.18809 94.21 7.47399 94.7818 8.04579C95.4903 8.75432 95.8446 9.67418 95.8446 10.8054V17.0144ZM100.785 17.0144H98.3613V7.29996H100.785V17.0144ZM100.804 5.64049H98.324V3.66405H100.804V5.64049ZM107.766 17.0144H106.442C105.522 17.0144 104.82 16.7409 104.335 16.194C103.863 15.647 103.627 14.9944 103.627 14.2362V9.42557H102.601V7.57964H103.627V4.70821H106.051V7.57964H107.766V9.42557H106.051V14.087C106.051 14.6712 106.33 14.9633 106.89 14.9633H107.766V17.0144Z" fill="black"/>
<path d="M48.6543 25.7406C48.6543 26.1794 48.6092 26.5395 48.5192 26.8209C48.4348 27.1022 48.2885 27.3526 48.0804 27.572C47.6302 28.0277 47.0648 28.2556 46.384 28.2556C45.7426 28.2556 45.2024 28.0362 44.7636 27.5973C44.5048 27.3385 44.3416 27.0375 44.2741 26.6943C44.2066 26.3567 44.1728 25.8587 44.1728 25.2004C44.1728 24.5422 44.2066 24.0442 44.2741 23.7066C44.3416 23.3634 44.5048 23.0624 44.7636 22.8036C45.2024 22.3647 45.7426 22.1453 46.384 22.1453C47.031 22.1453 47.5487 22.3253 47.9369 22.6854C48.3251 23.0455 48.5614 23.5069 48.6458 24.0695H47.4643C47.318 23.4844 46.9579 23.1918 46.384 23.1918C46.0689 23.1918 45.8185 23.2987 45.6329 23.5125C45.5147 23.6588 45.4359 23.836 45.3966 24.0442C45.3628 24.2468 45.3459 24.6322 45.3459 25.2004C45.3459 25.78 45.3628 26.1738 45.3966 26.382C45.4359 26.5845 45.5147 26.7562 45.6329 26.8968C45.8073 27.105 46.0577 27.2091 46.384 27.2091C46.7328 27.2091 47.0113 27.0966 47.2195 26.8715C47.3996 26.6633 47.4896 26.3961 47.4896 26.0697V25.8419H46.384V24.8629H48.6543V25.7406ZM53.9857 28.205H50.0866V22.1959H51.2597V27.1584H53.9857V28.205ZM59.2844 24.4493C59.29 24.6069 59.2928 24.8572 59.2928 25.2004C59.2928 25.5437 59.29 25.794 59.2844 25.9516C59.2787 26.1091 59.2591 26.306 59.2253 26.5423C59.1915 26.773 59.1296 26.97 59.0396 27.1331C58.9552 27.2963 58.8399 27.451 58.6936 27.5973C58.2547 28.0362 57.7146 28.2556 57.0732 28.2556C56.4261 28.2556 55.8832 28.0362 55.4443 27.5973C55.298 27.451 55.1827 27.2991 55.0983 27.1416C55.0139 26.9784 54.9548 26.7758 54.9211 26.5339C54.8873 26.292 54.8676 26.0979 54.862 25.9516C54.8564 25.8053 54.8536 25.5549 54.8536 25.2004C54.8536 24.846 54.8564 24.5956 54.862 24.4493C54.8676 24.303 54.8873 24.1089 54.9211 23.867C54.9548 23.625 55.0139 23.4253 55.0983 23.2678C55.1827 23.1046 55.298 22.9499 55.4443 22.8036C55.8832 22.3647 56.4261 22.1453 57.0732 22.1453C57.7146 22.1453 58.2547 22.3647 58.6936 22.8036C58.8399 22.9499 58.9552 23.1046 59.0396 23.2678C59.1296 23.4309 59.1915 23.6307 59.2253 23.867C59.2591 24.0977 59.2787 24.2918 59.2844 24.4493ZM58.0606 26.3736C58.1 26.1541 58.1197 25.7631 58.1197 25.2004C58.1197 24.6378 58.1 24.2496 58.0606 24.0358C58.0212 23.8163 57.9425 23.6419 57.8243 23.5125C57.6386 23.2987 57.3883 23.1918 57.0732 23.1918C56.7525 23.1918 56.4993 23.2987 56.3136 23.5125C56.1955 23.6419 56.1167 23.8135 56.0773 24.0273C56.0435 24.2411 56.0267 24.6322 56.0267 25.2004C56.0267 25.7687 56.0435 26.1598 56.0773 26.3736C56.1167 26.5874 56.1955 26.759 56.3136 26.8884C56.4993 27.1022 56.7525 27.2091 57.0732 27.2091C57.3883 27.2091 57.6386 27.1022 57.8243 26.8884C57.9425 26.759 58.0212 26.5874 58.0606 26.3736ZM65.1799 26.4748C65.1799 27.0206 65.0111 27.4454 64.6735 27.7492C64.336 28.053 63.8915 28.205 63.3401 28.205H60.8251V22.1959H63.2388C63.8183 22.1959 64.2712 22.3478 64.5976 22.6517C64.9295 22.9555 65.0955 23.3662 65.0955 23.8839C65.0955 24.1877 65.0167 24.4493 64.8592 24.6687C64.7073 24.8826 64.5385 25.0345 64.3528 25.1245C64.9042 25.3833 65.1799 25.8334 65.1799 26.4748ZM63.8043 26.9475C63.9393 26.8068 64.0068 26.6296 64.0068 26.4158C64.0068 26.2019 63.9393 26.0275 63.8043 25.8925C63.6692 25.7518 63.4751 25.6815 63.2219 25.6815H61.9982V27.1584H63.2219C63.4751 27.1584 63.6692 27.0881 63.8043 26.9475ZM63.7199 24.4409C63.8549 24.3115 63.9224 24.1427 63.9224 23.9345C63.9224 23.7263 63.8549 23.5603 63.7199 23.4366C63.5848 23.3072 63.3935 23.2424 63.146 23.2424H61.9982V24.6266H63.146C63.3935 24.6266 63.5848 24.5647 63.7199 24.4409ZM71.3594 28.205H70.1357L69.7812 27.1416H67.646L67.2831 28.205H66.0594L68.2452 22.1959H69.1651L71.3594 28.205ZM69.469 26.1541L68.7347 23.9683L67.9752 26.1541H69.469ZM76.3363 28.205H72.4371V22.1959H73.6103V27.1584H76.3363V28.205Z" fill="black"/>
</g>
<defs>
<clipPath id="clip0_4960_214">
<rect width="109" height="32.0196" fill="white" transform="translate(0 0.0143738)"/>
</clipPath>
</defs>
</svg>
