<svg width="138" height="40" viewBox="0 0 138 40" fill="none" xmlns="http://www.w3.org/2000/svg">
<g clip-path="url(#clip0_4960_251)">
<path d="M15.3831 1.6731L9.93608 2.47593L0 20.1019L9.93608 37.7279L15.3831 38.5308L4.80837 20.1019L15.3831 1.6731ZM29.3429 1.6731L34.79 2.47593L44.7261 20.1019L34.79 37.7188L29.3429 38.5216L39.9177 20.0928L29.3429 1.6731Z" fill="white"/>
<path d="M15.3832 1.67271L22.363 0.869873V20.1016H4.80841L15.3832 1.67271Z" fill="#FFF8DA"/>
<path d="M15.3832 38.5213L22.363 39.3241V20.1016H4.80841L15.3832 38.5213Z" fill="#FFE46B"/>
<path d="M29.3427 38.5213L22.3628 39.3241V20.1016H39.9175L29.3427 38.5213Z" fill="#FFD209"/>
<path d="M29.3427 1.67271L22.3628 0.869873V20.1016H39.9175L29.3427 1.67271Z" fill="#FFF1B5"/>
<path d="M67.8192 15.8612C67.5376 17.535 66.8493 18.8334 65.7543 19.7564C64.6592 20.6793 63.2983 21.1408 61.6714 21.1408C59.888 21.1408 58.3863 20.5307 57.1661 19.3105C56.4465 18.5909 55.9929 17.754 55.8052 16.7998C55.6174 15.8612 55.5236 14.4768 55.5236 12.6465C55.5236 10.8163 55.6174 9.43183 55.8052 8.49324C55.9929 7.539 56.4465 6.70209 57.1661 5.9825C58.3863 4.76233 59.888 4.15224 61.6714 4.15224C63.2983 4.15224 64.6592 4.61371 65.7543 5.53667C66.8493 6.45962 67.5376 7.758 67.8192 9.43183H64.5106C64.1195 7.85186 63.1809 7.06188 61.6948 7.06188C60.7875 7.06188 60.0914 7.35128 59.6065 7.93008C59.2623 8.28987 59.0355 8.76699 58.926 9.36144C58.8321 9.94024 58.7852 11.0353 58.7852 12.6465C58.7852 14.2578 58.8321 15.3606 58.926 15.9551C59.0355 16.5339 59.2623 17.0032 59.6065 17.3629C60.0914 17.9417 60.7875 18.2311 61.6948 18.2311C63.1809 18.2311 64.1195 17.4412 64.5106 15.8612H67.8192ZM80.1175 14.8757C80.1175 16.0489 80.0158 17.0032 79.8125 17.7384C79.6247 18.458 79.2649 19.0915 78.7331 19.639C77.7945 20.6402 76.5274 21.1408 74.9318 21.1408C73.3518 21.1408 72.0925 20.6402 71.1539 19.639C70.6221 19.0915 70.2544 18.458 70.0511 17.7384C69.8634 17.0032 69.7695 16.0489 69.7695 14.8757C69.7695 13.7181 69.8634 12.7795 70.0511 12.0599C70.2544 11.3247 70.6221 10.6833 71.1539 10.1358C72.0925 9.13461 73.3518 8.63403 74.9318 8.63403C76.5274 8.63403 77.7945 9.13461 78.7331 10.1358C79.2649 10.6833 79.6247 11.3247 79.8125 12.0599C80.0158 12.7795 80.1175 13.7181 80.1175 14.8757ZM77.0671 14.8757C77.0671 13.3739 76.8324 12.3884 76.3631 11.9191C76.0033 11.5593 75.5262 11.3794 74.9318 11.3794C74.353 11.3794 73.8837 11.5593 73.5239 11.9191C73.0546 12.3884 72.8199 13.3739 72.8199 14.8757C72.8199 16.3931 73.0546 17.3864 73.5239 17.8557C73.8837 18.2155 74.353 18.3954 74.9318 18.3954C75.5262 18.3954 76.0033 18.2155 76.3631 17.8557C76.8324 17.3864 77.0671 16.3931 77.0671 14.8757ZM100.179 21H97.1288V13.6086C97.1288 12.8421 96.9254 12.2789 96.5187 11.9191C96.1276 11.5593 95.6583 11.3794 95.1108 11.3794C94.5633 11.3794 94.0862 11.5593 93.6794 11.9191C93.2727 12.2633 93.0694 12.8029 93.0694 13.5382V21H90.0189V13.6086C90.0189 12.8421 89.8156 12.2789 89.4088 11.9191C89.0178 11.5593 88.5485 11.3794 88.0009 11.3794C87.4378 11.3794 86.9529 11.5593 86.5461 11.9191C86.155 12.2789 85.9595 12.8421 85.9595 13.6086V21H82.9091V8.77481H85.8891V9.90113C86.7026 9.05639 87.7194 8.63403 88.9395 8.63403C90.3474 8.63403 91.4268 9.15025 92.1777 10.1827C93.1632 9.15025 94.3834 8.63403 95.8382 8.63403C97.121 8.63403 98.1221 8.99382 98.8417 9.71341C99.7334 10.6051 100.179 11.7627 100.179 13.1862V21ZM120.617 21H117.566V13.6086C117.566 12.8421 117.363 12.2789 116.956 11.9191C116.565 11.5593 116.096 11.3794 115.548 11.3794C115.001 11.3794 114.523 11.5593 114.117 11.9191C113.71 12.2633 113.507 12.8029 113.507 13.5382V21H110.456V13.6086C110.456 12.8421 110.253 12.2789 109.846 11.9191C109.455 11.5593 108.986 11.3794 108.438 11.3794C107.875 11.3794 107.39 11.5593 106.983 11.9191C106.592 12.2789 106.397 12.8421 106.397 13.6086V21H103.346V8.77481H106.326V9.90113C107.14 9.05639 108.157 8.63403 109.377 8.63403C110.785 8.63403 111.864 9.15025 112.615 10.1827C113.601 9.15025 114.821 8.63403 116.276 8.63403C117.558 8.63403 118.559 8.99382 119.279 9.71341C120.171 10.6051 120.617 11.7627 120.617 13.1862V21ZM126.834 21H123.784V8.77481H126.834V21ZM126.858 6.68644H123.737V4.19917H126.858V6.68644ZM135.619 21H133.953C132.796 21 131.912 20.6558 131.302 19.9675C130.707 19.2792 130.41 18.458 130.41 17.5037V11.4498H129.119V9.12679H130.41V5.5132H133.46V9.12679H135.619V11.4498H133.46V17.316C133.46 18.0513 133.812 18.4189 134.516 18.4189H135.619V21Z" fill="white"/>
<path d="M61.2293 32.3079C61.2293 32.8602 61.1727 33.3133 61.0594 33.6673C60.9532 34.0214 60.7691 34.3365 60.5071 34.6126C59.9406 35.1861 59.229 35.4729 58.3723 35.4729C57.5651 35.4729 56.8853 35.1968 56.3331 34.6445C56.0073 34.3188 55.802 33.94 55.717 33.508C55.6321 33.0832 55.5896 32.4566 55.5896 31.6281C55.5896 30.7997 55.6321 30.1731 55.717 29.7482C55.802 29.3163 56.0073 28.9375 56.3331 28.6118C56.8853 28.0595 57.5651 27.7834 58.3723 27.7834C59.1865 27.7834 59.838 28.0099 60.3265 28.4631C60.8151 28.9163 61.1125 29.4969 61.2187 30.2049H59.7317C59.5477 29.4685 59.0945 29.1003 58.3723 29.1003C57.9758 29.1003 57.6607 29.2349 57.427 29.5039C57.2783 29.688 57.1792 29.9111 57.1296 30.1731C57.0871 30.428 57.0659 30.913 57.0659 31.6281C57.0659 32.3574 57.0871 32.8531 57.1296 33.1151C57.1792 33.37 57.2783 33.5859 57.427 33.7629C57.6465 34.0249 57.9616 34.1559 58.3723 34.1559C58.8113 34.1559 59.1618 34.0143 59.4237 33.7311C59.6503 33.4691 59.7636 33.1328 59.7636 32.7221V32.4353H58.3723V31.2033H61.2293V32.3079ZM67.9387 35.4092H63.0319V27.8471H64.5082V34.0922H67.9387V35.4092ZM74.6069 30.6829C74.6139 30.8811 74.6175 31.1962 74.6175 31.6281C74.6175 32.06 74.6139 32.3751 74.6069 32.5734C74.5998 32.7716 74.575 33.0195 74.5325 33.3169C74.49 33.6072 74.4121 33.855 74.2989 34.0603C74.1926 34.2657 74.0475 34.4604 73.8634 34.6445C73.3111 35.1968 72.6314 35.4729 71.8242 35.4729C71.0099 35.4729 70.3266 35.1968 69.7743 34.6445C69.5902 34.4604 69.4451 34.2692 69.3389 34.0709C69.2327 33.8656 69.1583 33.6107 69.1158 33.3062C69.0734 33.0018 69.0486 32.7575 69.0415 32.5734C69.0344 32.3893 69.0309 32.0742 69.0309 31.6281C69.0309 31.182 69.0344 30.867 69.0415 30.6829C69.0486 30.4988 69.0734 30.2545 69.1158 29.95C69.1583 29.6456 69.2327 29.3942 69.3389 29.1959C69.4451 28.9906 69.5902 28.7959 69.7743 28.6118C70.3266 28.0595 71.0099 27.7834 71.8242 27.7834C72.6314 27.7834 73.3111 28.0595 73.8634 28.6118C74.0475 28.7959 74.1926 28.9906 74.2989 29.1959C74.4121 29.4013 74.49 29.6526 74.5325 29.95C74.575 30.2403 74.5998 30.4846 74.6069 30.6829ZM73.0668 33.1044C73.1164 32.8283 73.1412 32.3362 73.1412 31.6281C73.1412 30.9201 73.1164 30.4315 73.0668 30.1624C73.0173 29.8863 72.9181 29.6668 72.7694 29.5039C72.5358 29.2349 72.2207 29.1003 71.8242 29.1003C71.4206 29.1003 71.102 29.2349 70.8683 29.5039C70.7196 29.6668 70.6205 29.8828 70.5709 30.1518C70.5284 30.4209 70.5072 30.913 70.5072 31.6281C70.5072 32.3433 70.5284 32.8354 70.5709 33.1044C70.6205 33.3735 70.7196 33.5895 70.8683 33.7523C71.102 34.0214 71.4206 34.1559 71.8242 34.1559C72.2207 34.1559 72.5358 34.0214 72.7694 33.7523C72.9181 33.5895 73.0173 33.3735 73.0668 33.1044ZM82.0262 33.2319C82.0262 33.9187 81.8137 34.4533 81.3889 34.8356C80.9641 35.218 80.4047 35.4092 79.7108 35.4092H76.5458V27.8471H79.5833C80.3126 27.8471 80.8826 28.0383 81.2933 28.4206C81.7111 28.803 81.92 29.3198 81.92 29.9713C81.92 30.3536 81.8208 30.6829 81.6226 30.959C81.4314 31.2281 81.219 31.4193 80.9853 31.5325C81.6792 31.8582 82.0262 32.4247 82.0262 33.2319ZM80.2949 33.8267C80.4649 33.6496 80.5499 33.4266 80.5499 33.1575C80.5499 32.8885 80.4649 32.669 80.2949 32.499C80.125 32.322 79.8807 32.2335 79.5621 32.2335H78.0221V34.0922H79.5621C79.8807 34.0922 80.125 34.0037 80.2949 33.8267ZM80.1887 30.6722C80.3587 30.5094 80.4436 30.297 80.4436 30.035C80.4436 29.773 80.3587 29.5641 80.1887 29.4084C80.0188 29.2455 79.7781 29.1641 79.4665 29.1641H78.0221V30.9059H79.4665C79.7781 30.9059 80.0188 30.828 80.1887 30.6722ZM89.8028 35.4092H88.2628L87.8167 34.0709H85.1296L84.6729 35.4092H83.1329L85.8837 27.8471H87.0414L89.8028 35.4092ZM87.4237 32.8283L86.4997 30.0775L85.5438 32.8283H87.4237ZM96.0659 35.4092H91.1591V27.8471H92.6354V34.0922H96.0659V35.4092Z" fill="white"/>
</g>
<defs>
<clipPath id="clip0_4960_251">
<rect width="137.03" height="40" fill="white"/>
</clipPath>
</defs>
</svg>
