<svg width="445" height="200" viewBox="0 0 445 200" fill="none" xmlns="http://www.w3.org/2000/svg">
<g clip-path="url(#clip0_8202_17934)">
<path d="M333.965 90.1734H328.375L299.024 45.8373V90.1734H293.123V34.8891H298.714L328.064 79.07V34.8891H333.965V90.1734Z" fill="#231F20"/>
<path d="M390.569 69.9853C390.569 76.1453 388.991 80.9076 385.833 84.2723C381.899 88.5169 376.981 90.6393 371.08 90.6393C365.49 90.6393 360.779 88.724 356.948 84.8935C354.567 82.5123 353.109 79.8896 352.566 77.0166C352.022 74.1437 351.746 69.321 351.746 62.5399C351.746 55.7588 352.014 50.9274 352.566 48.0545C353.109 45.1816 354.567 42.5589 356.948 40.1777C360.779 36.3472 365.49 34.4319 371.08 34.4319C376.256 34.4319 380.562 35.9417 384.012 38.9699C387.455 41.9981 389.586 45.9926 390.423 50.962H384.522C383.745 47.442 382.166 44.6898 379.785 42.6969C377.404 40.704 374.505 39.7032 371.089 39.7032C367.258 39.7032 364.075 41.0232 361.538 43.6632C359.882 45.3714 358.821 47.4333 358.355 49.8318C357.889 52.2388 357.656 56.4749 357.656 62.5313C357.656 68.5877 357.889 72.8324 358.355 75.2653C358.821 77.6982 359.882 79.7688 361.538 81.477C364.023 84.0652 367.206 85.3593 371.089 85.3593C375.489 85.3593 378.983 83.7805 381.571 80.6229C383.642 78.1382 384.677 74.7994 384.677 70.6065V66.4136H371.089V61.2113H390.578V69.9853H390.569Z" fill="#231F20"/>
<path d="M443.948 48.0459C444.491 50.9188 444.768 55.7501 444.768 62.5313C444.768 69.3124 444.5 74.1351 443.948 77.008C443.404 79.8809 441.946 82.5123 439.565 84.8848C435.735 88.7154 431.024 90.6306 425.434 90.6306C419.843 90.6306 415.132 88.7154 411.302 84.8848C408.921 82.5037 407.463 79.8809 406.919 77.008C406.376 74.1351 406.1 69.3124 406.1 62.5313C406.1 55.7501 406.367 50.9188 406.919 48.0459C407.463 45.173 408.921 42.5502 411.302 40.1691C415.132 36.3385 419.843 34.4232 425.434 34.4232C431.024 34.4232 435.735 36.3385 439.565 40.1691C441.946 42.5502 443.404 45.1816 443.948 48.0459ZM438.168 75.2221C438.633 72.8151 438.866 68.5877 438.866 62.5313C438.866 56.4748 438.633 52.2388 438.168 49.8318C437.702 47.4247 436.641 45.3714 434.984 43.6632C432.448 41.0232 429.264 39.7032 425.434 39.7032C421.603 39.7032 418.42 41.0232 415.883 43.6632C414.227 45.3714 413.165 47.4333 412.7 49.8318C412.234 52.2388 412.001 56.4748 412.001 62.5313C412.001 68.5877 412.234 72.8151 412.7 75.2221C413.165 77.6292 414.227 79.6911 415.883 81.3993C418.42 84.0393 421.603 85.3593 425.434 85.3593C429.264 85.3593 432.448 84.0393 434.984 81.3993C436.641 79.6911 437.702 77.6292 438.168 75.2221Z" fill="#231F20"/>
<path d="M326.433 167.82H316.339V143.128C316.339 140.644 315.692 138.832 314.398 137.693C313.104 136.554 311.551 135.985 309.739 135.985C307.928 135.985 306.392 136.563 305.124 137.728C303.856 138.892 303.217 140.695 303.217 143.12V167.811H293.123V112.527H303.217V131.084C305.961 128.289 309.196 126.892 312.923 126.892C317.219 126.892 320.541 128.246 322.896 130.964C325.251 133.681 326.433 137.244 326.433 141.644V167.811V167.82Z" fill="#231F20"/>
<path d="M374.334 167.82H364.473V164.093C361.833 166.888 358.468 168.286 354.379 168.286C350.289 168.286 347.209 167.095 344.828 164.714C342.085 161.97 340.713 158.14 340.713 153.222V127.366H350.807V151.825C350.807 154.361 351.463 156.225 352.783 157.415C354.103 158.606 355.664 159.201 357.484 159.201C359.305 159.201 360.935 158.606 362.255 157.415C363.575 156.225 364.24 154.361 364.24 151.825V127.366H374.334V167.82Z" fill="#231F20"/>
<path d="M423.251 141.144C423.355 142.723 423.407 144.854 423.407 147.545C423.407 150.237 423.355 152.377 423.251 153.947C423.148 155.526 422.768 157.389 422.121 159.538C421.474 161.686 420.534 163.385 419.291 164.619C416.858 167.052 413.571 168.268 409.43 168.268C405.289 168.268 401.873 166.845 399.336 163.998V167.803H389.553V112.518H399.647V130.921C402.08 128.229 405.341 126.883 409.43 126.883C413.52 126.883 416.858 128.099 419.291 130.532C420.534 131.775 421.474 133.457 422.121 135.579C422.768 137.702 423.148 139.557 423.251 141.135V141.144ZM413.313 147.545C413.313 143.715 412.873 140.833 411.993 138.892C411.113 136.951 409.275 135.976 406.48 135.976C403.684 135.976 401.847 136.942 400.967 138.892C400.087 140.833 399.647 143.724 399.647 147.545C399.647 149.409 399.724 150.962 399.88 152.204C400.035 153.447 400.328 154.637 400.768 155.776C401.208 156.915 401.907 157.769 402.865 158.338C403.822 158.908 405.022 159.192 406.48 159.192C407.938 159.192 409.128 158.908 410.095 158.338C411.052 157.769 411.751 156.915 412.191 155.776C412.631 154.637 412.933 153.447 413.08 152.204C413.235 150.962 413.313 149.409 413.313 147.545Z" fill="#231F20"/>
<path d="M166.258 9.36072L178.302 11.1293L229.212 101.458L178.302 191.787L165.43 193.685L217.522 101.467L166.258 9.36072Z" fill="#231F20"/>
<path d="M165.431 193.676L114.615 200L63.7914 193.642L11.6992 101.458L62.8855 9.43836L114.615 0L166.259 9.36071L217.523 101.458L165.431 193.676Z" fill="#FED210"/>
<path d="M11.6901 101.458L63.7909 193.642L50.9102 191.787L0 101.458L50.9102 11.1293L62.8764 9.43835L11.6901 101.458Z" fill="#231F20"/>
<path d="M88.5344 127.677H77.638V104.314H58.744V127.677H47.8477V71.8488H58.744V94.6683H77.638V71.8488H88.5344V127.677Z" fill="#231F20"/>
<path d="M137.857 108.541C137.857 114.347 135.898 119.058 131.973 122.69C128.056 126.322 123.164 128.143 117.306 128.143C111.448 128.143 106.565 126.331 102.64 122.69C98.7229 119.058 96.7559 114.339 96.7559 108.541V71.8488H107.652V108.153C107.652 111.345 108.515 113.847 110.24 115.676C111.966 117.505 114.321 118.419 117.298 118.419C120.274 118.419 122.638 117.505 124.398 115.676C126.149 113.847 127.021 111.336 127.021 108.153V71.8488H137.839V108.541H137.857Z" fill="#231F20"/>
<path d="M186.549 111.604C186.549 116.677 184.979 120.619 181.848 123.441C178.707 126.262 174.583 127.677 169.459 127.677H146.096V71.8488H168.518C173.902 71.8488 178.121 73.2637 181.183 76.0849C184.237 78.906 185.773 82.728 185.773 87.5334C185.773 90.3546 185.057 92.7703 183.616 94.7891C182.175 96.7992 180.597 98.2228 178.871 99.0596C183.996 101.467 186.558 105.642 186.558 111.604H186.549ZM172.987 92.6667C174.238 91.4934 174.868 89.9405 174.868 87.9993C174.868 86.0581 174.238 84.5138 172.987 83.3319C171.736 82.1586 169.95 81.5719 167.656 81.5719H156.992V94.4267H167.656C169.95 94.4267 171.736 93.84 172.987 92.6667ZM173.772 115.995C175.023 114.692 175.653 113.045 175.653 111.06C175.653 109.076 175.023 107.437 173.772 106.16C172.521 104.883 170.718 104.236 168.363 104.236H156.992V117.962H168.363C170.718 117.962 172.521 117.307 173.772 116.004V115.995Z" fill="#231F20"/>
</g>
<defs>
<clipPath id="clip0_8202_17934">
<rect width="444.767" height="200" fill="white"/>
</clipPath>
</defs>
</svg>
