<svg width="3000" height="2457" viewBox="0 0 3000 2457" fill="none" xmlns="http://www.w3.org/2000/svg">
<g clip-path="url(#clip0_1447_738)">
<ellipse cx="-41.3246" cy="1240.17" rx="285.339" ry="285.285" fill="#FFF9F5"/>
<ellipse cx="2958.68" cy="1240.17" rx="285.339" ry="285.285" fill="#FFF9F5"/>
<ellipse cx="1586.09" cy="11.805" rx="348.967" ry="348.901" fill="#EAF0FF"/>
<ellipse cx="1586.09" cy="2460.67" rx="348.967" ry="348.901" fill="#EAF0FF"/>
<rect width="554.617" height="554.564" transform="matrix(0.866066 -0.499929 0.500071 0.865984 770.088 1553.51)" fill="#FFF9F5"/>
<path d="M-152.173 98.7119L278.808 98.7119L63.3174 471.881L-152.173 98.7119Z" fill="#FFEDE8"/>
<path d="M2847.93 98.7119L3278.91 98.7119L3063.42 471.881L2847.93 98.7119Z" fill="#FFEDE8"/>
<path d="M623.711 714.298L996.951 498.849L996.951 929.748L623.711 714.298Z" fill="#FFFDE4"/>
<path d="M1735.65 992.489L2108.89 777.039L2108.89 1207.94L1735.65 992.489Z" fill="#FFFDE4"/>
</g>
<defs>
<clipPath id="clip0_1447_738">
<rect width="3000" height="2456.52" fill="white"/>
</clipPath>
</defs>
</svg>
