<svg width="88" height="69" viewBox="0 0 88 69" fill="none" xmlns="http://www.w3.org/2000/svg">
<path d="M39.2 15.2999C39.2 23.2528 32.7529 29.6999 24.8 29.6999C16.8471 29.6999 10.4 23.2528 10.4 15.2999C10.4 7.347 16.8471 0.899902 24.8 0.899902C32.7529 0.899902 39.2 7.347 39.2 15.2999Z" fill="black"/>
<path d="M77.6 15.2999C77.6 23.2528 71.1529 29.6999 63.2 29.6999C55.2471 29.6999 48.8 23.2528 48.8 15.2999C48.8 7.347 55.2471 0.899902 63.2 0.899902C71.1529 0.899902 77.6 7.347 77.6 15.2999Z" fill="black"/>
<path d="M58.0598 68.0999C58.2841 66.5322 58.4001 64.9296 58.4001 63.2999C58.4001 55.451 55.7089 48.2307 51.1988 42.5114C54.7292 40.4689 58.8281 39.2999 63.2001 39.2999C76.4549 39.2999 87.2001 50.0451 87.2001 63.2999V68.0999H58.0598Z" fill="black"/>
<path d="M24.8 39.2999C38.0548 39.2999 48.8 50.0451 48.8 63.2999V68.0999H0.800003V63.2999C0.800003 50.0451 11.5452 39.2999 24.8 39.2999Z" fill="black"/>
</svg>
